<svg width="225" height="54" viewBox="0 0 225 54" fill="none" xmlns="http://www.w3.org/2000/svg">
<path d="M10.125 27C13.2316 27 15.75 24.4816 15.75 21.375C15.75 18.2684 13.2316 15.75 10.125 15.75C7.0184 15.75 4.5 18.2684 4.5 21.375C4.5 24.4816 7.0184 27 10.125 27Z" fill="#00ACC1"/>
<path d="M20.25 18C23.3566 18 25.875 15.4816 25.875 12.375C25.875 9.2684 23.3566 6.75 20.25 6.75C17.1434 6.75 14.625 9.2684 14.625 12.375C14.625 15.4816 17.1434 18 20.25 18Z" fill="#00ACC1"/>
<path d="M33.75 18C36.8566 18 39.375 15.4816 39.375 12.375C39.375 9.2684 36.8566 6.75 33.75 6.75C30.6434 6.75 28.125 9.2684 28.125 12.375C28.125 15.4816 30.6434 18 33.75 18Z" fill="#00ACC1"/>
<path d="M43.875 27C46.9816 27 49.5 24.4816 49.5 21.375C49.5 18.2684 46.9816 15.75 43.875 15.75C40.7684 15.75 38.25 18.2684 38.25 21.375C38.25 24.4816 40.7684 27 43.875 27Z" fill="#00ACC1"/>
<path d="M39.015 33.435C37.0575 31.14 35.415 29.1825 33.435 26.8875C32.4 25.6725 31.0725 24.4575 29.4975 23.9175C29.25 23.8275 29.0025 23.76 28.755 23.715C28.1925 23.625 27.585 23.625 27 23.625C26.415 23.625 25.8075 23.625 25.2225 23.7375C24.975 23.7825 24.7275 23.85 24.48 23.94C22.905 24.48 21.6 25.695 20.5425 26.91C18.585 29.205 16.9425 31.1625 14.9625 33.4575C12.015 36.405 8.39252 39.6675 9.06752 44.235C9.72002 46.53 11.3625 48.8025 14.31 49.455C15.9525 49.7925 21.195 48.465 26.775 48.465H27.18C32.76 48.465 38.0025 49.77 39.645 49.455C42.5925 48.8025 44.235 46.5075 44.8875 44.235C45.585 39.645 41.9625 36.3825 39.015 33.435Z" fill="#00ACC1"/>
<path d="M88.119 25.148C88.119 26.246 87.867 27.254 87.363 28.172C86.859 29.072 86.085 29.801 85.041 30.359C83.997 30.917 82.701 31.196 81.153 31.196H78.291V38H73.674V19.046H81.153C82.665 19.046 83.943 19.307 84.987 19.829C86.031 20.351 86.814 21.071 87.336 21.989C87.858 22.907 88.119 23.96 88.119 25.148ZM80.802 27.524C81.684 27.524 82.341 27.317 82.773 26.903C83.205 26.489 83.421 25.904 83.421 25.148C83.421 24.392 83.205 23.807 82.773 23.393C82.341 22.979 81.684 22.772 80.802 22.772H78.291V27.524H80.802ZM95.1396 22.745V26.579H101.323V30.143H95.1396V34.301H102.133V38H90.5226V19.046H102.133V22.745H95.1396ZM118.765 19.046V22.745H113.743V38H109.126V22.745H104.104V19.046H118.765ZM147.164 19.046L142.223 38H136.634L133.61 25.526L130.478 38H124.889L120.083 19.046H125.024L127.751 32.843L131.126 19.046H136.202L139.442 32.843L142.196 19.046H147.164ZM154.097 19.046V38H149.48V19.046H154.097ZM171.078 19.046V22.745H166.056V38H161.439V22.745H156.417V19.046H171.078ZM187.03 19.046V22.745H182.008V38H177.391V22.745H172.369V19.046H187.03ZM193.964 22.745V26.579H200.147V30.143H193.964V34.301H200.957V38H189.347V19.046H200.957V22.745H193.964ZM213.62 38L209.678 30.845H208.571V38H203.954V19.046H211.703C213.197 19.046 214.466 19.307 215.51 19.829C216.572 20.351 217.364 21.071 217.886 21.989C218.408 22.889 218.669 23.897 218.669 25.013C218.669 26.273 218.309 27.398 217.589 28.388C216.887 29.378 215.843 30.08 214.457 30.494L218.831 38H213.62ZM208.571 27.578H211.433C212.279 27.578 212.909 27.371 213.323 26.957C213.755 26.543 213.971 25.958 213.971 25.202C213.971 24.482 213.755 23.915 213.323 23.501C212.909 23.087 212.279 22.88 211.433 22.88H208.571V27.578Z" fill="#00ACC1"/>
</svg>
