<svg width="419" height="103" viewBox="0 0 419 103" fill="none" xmlns="http://www.w3.org/2000/svg">
<g clip-path="url(#clip0_256_272)">
<path d="M19.3124 51.5001C25.238 51.5001 30.0416 46.6965 30.0416 40.7709C30.0416 34.8454 25.238 30.0417 19.3124 30.0417C13.3869 30.0417 8.58325 34.8454 8.58325 40.7709C8.58325 46.6965 13.3869 51.5001 19.3124 51.5001Z" fill="white"/>
<path d="M38.625 34.3333C44.5506 34.3333 49.3542 29.5297 49.3542 23.6042C49.3542 17.6786 44.5506 12.875 38.625 12.875C32.6995 12.875 27.8959 17.6786 27.8959 23.6042C27.8959 29.5297 32.6995 34.3333 38.625 34.3333Z" fill="white"/>
<path d="M64.375 34.3333C70.3006 34.3333 75.1042 29.5297 75.1042 23.6042C75.1042 17.6786 70.3006 12.875 64.375 12.875C58.4495 12.875 53.6459 17.6786 53.6459 23.6042C53.6459 29.5297 58.4495 34.3333 64.375 34.3333Z" fill="white"/>
<path d="M83.6875 51.5001C89.6131 51.5001 94.4167 46.6965 94.4167 40.7709C94.4167 34.8454 89.6131 30.0417 83.6875 30.0417C77.762 30.0417 72.9584 34.8454 72.9584 40.7709C72.9584 46.6965 77.762 51.5001 83.6875 51.5001Z" fill="white"/>
<path d="M74.4171 63.7742C70.6834 59.3967 67.5505 55.6629 63.7738 51.2854C61.7996 48.9679 59.2675 46.6504 56.2634 45.6204C55.7913 45.4488 55.3192 45.32 54.8471 45.2342C53.7742 45.0625 52.6155 45.0625 51.4996 45.0625C50.3838 45.0625 49.225 45.0625 48.1092 45.2771C47.6371 45.3629 47.165 45.4917 46.693 45.6633C43.6888 46.6933 41.1996 49.0108 39.1825 51.3283C35.4488 55.7058 32.3159 59.4396 28.5392 63.8171C22.9171 69.4392 16.0075 75.6621 17.295 84.3742C18.5396 88.7517 21.6725 93.0863 27.2946 94.3308C30.4275 94.9746 40.4271 92.4425 51.0704 92.4425H51.843C62.4863 92.4425 72.4859 94.9317 75.6188 94.3308C81.2409 93.0863 84.3738 88.7088 85.6184 84.3742C86.9488 75.6192 80.0392 69.3962 74.4171 63.7742Z" fill="white"/>
</g>
<path d="M157.746 49.6527C157.746 51.7471 157.265 53.6697 156.304 55.4207C155.342 57.1374 153.866 58.5279 151.875 59.5922C149.883 60.6566 147.411 61.1887 144.459 61.1887H139V74.1667H130.193V38.0137H144.459C147.343 38.0137 149.78 38.5116 151.772 39.5072C153.763 40.5029 155.256 41.8762 156.252 43.6272C157.248 45.3782 157.746 47.3867 157.746 49.6527ZM143.789 54.1847C145.471 54.1847 146.725 53.7899 147.549 53.0002C148.373 52.2106 148.785 51.0947 148.785 49.6527C148.785 48.2107 148.373 47.0949 147.549 46.3052C146.725 45.5156 145.471 45.1207 143.789 45.1207H139V54.1847H143.789ZM171.137 45.0692V52.3822H182.93V59.1802H171.137V67.1112H184.475V74.1667H162.33V38.0137H184.475V45.0692H171.137ZM216.2 38.0137V45.0692H206.621V74.1667H197.815V45.0692H188.236V38.0137H216.2ZM270.369 38.0137L260.944 74.1667H250.284L244.516 50.3737L238.542 74.1667H227.881L218.714 38.0137H228.139L233.34 64.3302L239.778 38.0137H249.46L255.64 64.3302L260.893 38.0137H270.369ZM283.592 38.0137V74.1667H274.785V38.0137H283.592ZM315.981 38.0137V45.0692H306.402V74.1667H297.596V45.0692H288.017V38.0137H315.981ZM346.409 38.0137V45.0692H336.83V74.1667H328.023V45.0692H318.444V38.0137H346.409ZM359.635 45.0692V52.3822H371.428V59.1802H359.635V67.1112H372.973V74.1667H350.828V38.0137H372.973V45.0692H359.635ZM397.128 74.1667L389.609 60.5192H387.497V74.1667H378.691V38.0137H393.471C396.321 38.0137 398.741 38.5116 400.733 39.5072C402.758 40.5029 404.269 41.8762 405.265 43.6272C406.26 45.3439 406.758 47.2666 406.758 49.3952C406.758 51.7986 406.071 53.9444 404.698 55.8327C403.359 57.7211 401.368 59.0601 398.724 59.8497L407.067 74.1667H397.128ZM387.497 54.2877H392.956C394.57 54.2877 395.771 53.8929 396.561 53.1032C397.385 52.3136 397.797 51.1977 397.797 49.7557C397.797 48.3824 397.385 47.3009 396.561 46.5112C395.771 45.7216 394.57 45.3267 392.956 45.3267H387.497V54.2877Z" fill="white"/>
<defs>
<clipPath id="clip0_256_272">
<rect width="103" height="103" fill="white"/>
</clipPath>
</defs>
</svg>
